<svg width="197" height="100" viewBox="0 0 197 100" fill="none" xmlns="http://www.w3.org/2000/svg">
<g filter="url(#filter0_d_54_115)">
<rect x="9" y="6" width="179.121" height="82" rx="22.0332" fill="#F6F9FF"/>
<path d="M75.042 60.4982C73.9099 60.4982 72.9018 60.3043 72.0179 59.9166C71.1339 59.5289 70.436 59.0016 69.9243 58.3348C69.4125 57.6524 69.1256 56.8925 69.0636 56.0551H72.9949C73.0414 56.5048 73.2508 56.8692 73.623 57.1484C73.9952 57.4275 74.4527 57.5671 74.9955 57.5671C75.4917 57.5671 75.8717 57.4741 76.1353 57.288C76.4145 57.0864 76.554 56.8305 76.554 56.5203C76.554 56.1481 76.3602 55.8767 75.9725 55.7061C75.5848 55.52 74.9567 55.3184 74.0882 55.1013C73.1577 54.8842 72.3823 54.6593 71.762 54.4267C71.1417 54.1785 70.6066 53.7986 70.1569 53.2868C69.7071 52.7595 69.4823 52.0539 69.4823 51.1699C69.4823 50.4255 69.6839 49.7509 70.0871 49.1461C70.5058 48.5258 71.1106 48.0373 71.9016 47.6806C72.708 47.3239 73.6618 47.1455 74.7628 47.1455C76.3912 47.1455 77.6706 47.5488 78.6011 48.3552C79.5471 49.1616 80.0899 50.2317 80.2295 51.5654H76.554C76.492 51.1157 76.2904 50.759 75.9492 50.4953C75.6236 50.2317 75.1893 50.0999 74.6465 50.0999C74.1813 50.0999 73.8246 50.1929 73.5765 50.379C73.3283 50.5496 73.2043 50.79 73.2043 51.1002C73.2043 51.4724 73.3981 51.7515 73.7858 51.9376C74.189 52.1237 74.8094 52.3098 75.6468 52.4959C76.6083 52.744 77.3915 52.9922 77.9963 53.2403C78.6011 53.4729 79.1284 53.8606 79.5782 54.4034C80.0434 54.9307 80.2838 55.6441 80.2993 56.5436C80.2993 57.3035 80.0822 57.9858 79.6479 58.5907C79.2292 59.18 78.6166 59.6452 77.8102 59.9864C77.0193 60.3276 76.0966 60.4982 75.042 60.4982ZM89.9676 56.939V60.3121H87.9437C86.5015 60.3121 85.3771 59.9631 84.5707 59.2653C83.7642 58.5519 83.361 57.3965 83.361 55.7992V50.6349H81.7792V47.3316H83.361V44.168H87.3389V47.3316H89.9443V50.6349H87.3389V55.8457C87.3389 56.2334 87.432 56.5125 87.6181 56.6831C87.8042 56.8537 88.1143 56.939 88.5485 56.939H89.9676ZM105.001 47.3316V60.3121H101.023V58.5441C100.62 59.1179 100.069 59.5832 99.3714 59.9399C98.689 60.2811 97.9291 60.4516 97.0917 60.4516C96.0991 60.4516 95.2229 60.2345 94.463 59.8003C93.7031 59.3506 93.1138 58.707 92.6951 57.8695C92.2764 57.0321 92.067 56.0473 92.067 54.9152V47.3316H96.0216V54.3802C96.0216 55.2486 96.2465 55.9232 96.6962 56.404C97.146 56.8847 97.7508 57.1251 98.5107 57.1251C99.2861 57.1251 99.8987 56.8847 100.348 56.404C100.798 55.9232 101.023 55.2486 101.023 54.3802V47.3316H105.001ZM107.067 53.7986C107.067 52.4649 107.315 51.294 107.812 50.286C108.323 49.2779 109.014 48.5025 109.882 47.9597C110.75 47.4169 111.72 47.1455 112.79 47.1455C113.643 47.1455 114.418 47.3239 115.116 47.6806C115.829 48.0373 116.388 48.518 116.791 49.1229V43.0979H120.769V60.3121H116.791V58.4511C116.419 59.0714 115.884 59.5677 115.186 59.9399C114.503 60.3121 113.705 60.4982 112.79 60.4982C111.72 60.4982 110.75 60.2268 109.882 59.684C109.014 59.1257 108.323 58.3425 107.812 57.3345C107.315 56.3109 107.067 55.1323 107.067 53.7986ZM116.791 53.8219C116.791 52.8293 116.512 52.0462 115.953 51.4724C115.411 50.8985 114.744 50.6116 113.953 50.6116C113.162 50.6116 112.487 50.8985 111.929 51.4724C111.386 52.0307 111.115 52.8061 111.115 53.7986C111.115 54.7911 111.386 55.582 111.929 56.1714C112.487 56.7452 113.162 57.0321 113.953 57.0321C114.744 57.0321 115.411 56.7452 115.953 56.1714C116.512 55.5976 116.791 54.8144 116.791 53.8219ZM125.647 45.9824C124.949 45.9824 124.376 45.7808 123.926 45.3776C123.492 44.9589 123.274 44.4471 123.274 43.8423C123.274 43.222 123.492 42.7102 123.926 42.307C124.376 41.8882 124.949 41.6789 125.647 41.6789C126.33 41.6789 126.888 41.8882 127.322 42.307C127.772 42.7102 127.997 43.222 127.997 43.8423C127.997 44.4471 127.772 44.9589 127.322 45.3776C126.888 45.7808 126.33 45.9824 125.647 45.9824ZM127.625 47.3316V60.3121H123.647V47.3316H127.625ZM136.416 60.4982C135.144 60.4982 133.997 60.2268 132.973 59.684C131.965 59.1412 131.166 58.3658 130.577 57.3577C130.003 56.3497 129.716 55.1711 129.716 53.8219C129.716 52.4881 130.011 51.3173 130.6 50.3092C131.19 49.2857 131.996 48.5025 133.02 47.9597C134.043 47.4169 135.191 47.1455 136.462 47.1455C137.734 47.1455 138.882 47.4169 139.905 47.9597C140.929 48.5025 141.735 49.2857 142.325 50.3092C142.914 51.3173 143.209 52.4881 143.209 53.8219C143.209 55.1556 142.906 56.3342 142.301 57.3577C141.712 58.3658 140.898 59.1412 139.859 59.684C138.835 60.2268 137.688 60.4982 136.416 60.4982ZM136.416 57.0553C137.176 57.0553 137.819 56.7762 138.347 56.2179C138.889 55.6596 139.161 54.8609 139.161 53.8219C139.161 52.7828 138.897 51.9841 138.37 51.4258C137.858 50.8675 137.222 50.5884 136.462 50.5884C135.687 50.5884 135.043 50.8675 134.532 51.4258C134.02 51.9686 133.764 52.7673 133.764 53.8219C133.764 54.8609 134.012 55.6596 134.508 56.2179C135.02 56.7762 135.656 57.0553 136.416 57.0553ZM147.18 60.4982C146.482 60.4982 145.908 60.2966 145.458 59.8933C145.024 59.4746 144.807 58.9629 144.807 58.358C144.807 57.7377 145.024 57.2182 145.458 56.7994C145.908 56.3807 146.482 56.1714 147.18 56.1714C147.862 56.1714 148.42 56.3807 148.855 56.7994C149.304 57.2182 149.529 57.7377 149.529 58.358C149.529 58.9629 149.304 59.4746 148.855 59.8933C148.42 60.2966 147.862 60.4982 147.18 60.4982ZM153.885 45.9824C153.187 45.9824 152.613 45.7808 152.163 45.3776C151.729 44.9589 151.512 44.4471 151.512 43.8423C151.512 43.222 151.729 42.7102 152.163 42.307C152.613 41.8882 153.187 41.6789 153.885 41.6789C154.567 41.6789 155.125 41.8882 155.56 42.307C156.009 42.7102 156.234 43.222 156.234 43.8423C156.234 44.4471 156.009 44.9589 155.56 45.3776C155.125 45.7808 154.567 45.9824 153.885 45.9824ZM155.862 47.3316V60.3121H151.884V47.3316H155.862ZM157.954 53.7986C157.954 52.4649 158.202 51.294 158.698 50.286C159.21 49.2779 159.9 48.5025 160.769 47.9597C161.637 47.4169 162.606 47.1455 163.676 47.1455C164.529 47.1455 165.305 47.3239 166.003 47.6806C166.716 48.0373 167.274 48.518 167.677 49.1229V43.0979H171.655V60.3121H167.677V58.4511C167.305 59.0714 166.77 59.5677 166.072 59.9399C165.39 60.3121 164.591 60.4982 163.676 60.4982C162.606 60.4982 161.637 60.2268 160.769 59.684C159.9 59.1257 159.21 58.3425 158.698 57.3345C158.202 56.3109 157.954 55.1323 157.954 53.7986ZM167.677 53.8219C167.677 52.8293 167.398 52.0462 166.84 51.4724C166.297 50.8985 165.63 50.6116 164.839 50.6116C164.049 50.6116 163.374 50.8985 162.816 51.4724C162.273 52.0307 162.001 52.8061 162.001 53.7986C162.001 54.7911 162.273 55.582 162.816 56.1714C163.374 56.7452 164.049 57.0321 164.839 57.0321C165.63 57.0321 166.297 56.7452 166.84 56.1714C167.398 55.5976 167.677 54.8144 167.677 53.8219Z" fill="#302A69"/>
<path d="M68.9705 34.0255C68.9705 32.6918 69.2186 31.5209 69.7149 30.5129C70.2267 29.5049 70.9168 28.7294 71.7853 28.1867C72.6537 27.6439 73.623 27.3725 74.6931 27.3725C75.608 27.3725 76.4067 27.5586 77.0891 27.9308C77.787 28.303 78.322 28.7915 78.6942 29.3963V27.5586H82.6721V40.539H78.6942V38.7013C78.3065 39.3061 77.7637 39.7946 77.0658 40.1668C76.3835 40.539 75.5848 40.7251 74.6698 40.7251C73.6152 40.7251 72.6537 40.4537 71.7853 39.9109C70.9168 39.3526 70.2267 38.5695 69.7149 37.5614C69.2186 36.5379 68.9705 35.3592 68.9705 34.0255ZM78.6942 34.0488C78.6942 33.0563 78.415 32.2731 77.8567 31.6993C77.314 31.1255 76.6471 30.8386 75.8562 30.8386C75.0653 30.8386 74.3906 31.1255 73.8323 31.6993C73.2896 32.2576 73.0182 33.033 73.0182 34.0255C73.0182 35.0181 73.2896 35.809 73.8323 36.3983C74.3906 36.9721 75.0653 37.259 75.8562 37.259C76.6471 37.259 77.314 36.9721 77.8567 36.3983C78.415 35.8245 78.6942 35.0413 78.6942 34.0488ZM89.5278 29.722C89.993 29.0086 90.5746 28.4503 91.2724 28.0471C91.9703 27.6284 92.7457 27.419 93.5987 27.419V31.6295H92.5053C91.5128 31.6295 90.7684 31.8466 90.2721 32.2808C89.7759 32.6996 89.5278 33.444 89.5278 34.514V40.539H85.5499V27.5586H89.5278V29.722ZM94.7091 34.0255C94.7091 32.6918 94.9572 31.5209 95.4535 30.5129C95.9653 29.5049 96.6554 28.7294 97.5238 28.1867C98.3923 27.6439 99.3616 27.3725 100.432 27.3725C101.347 27.3725 102.145 27.5586 102.828 27.9308C103.526 28.303 104.061 28.7915 104.433 29.3963V27.5586H108.411V40.539H104.433V38.7013C104.045 39.3061 103.502 39.7946 102.804 40.1668C102.122 40.539 101.323 40.7251 100.408 40.7251C99.3538 40.7251 98.3923 40.4537 97.5238 39.9109C96.6554 39.3526 95.9653 38.5695 95.4535 37.5614C94.9572 36.5379 94.7091 35.3592 94.7091 34.0255ZM104.433 34.0488C104.433 33.0563 104.154 32.2731 103.595 31.6993C103.053 31.1255 102.386 30.8386 101.595 30.8386C100.804 30.8386 100.129 31.1255 99.5709 31.6993C99.0281 32.2576 98.7568 33.033 98.7568 34.0255C98.7568 35.0181 99.0281 35.809 99.5709 36.3983C100.129 36.9721 100.804 37.259 101.595 37.259C102.386 37.259 103.053 36.9721 103.595 36.3983C104.154 35.8245 104.433 35.0413 104.433 34.0488ZM119.198 27.419C120.718 27.419 121.927 27.9153 122.827 28.9078C123.742 29.8848 124.199 31.234 124.199 32.9555V40.539H120.244V33.4905C120.244 32.622 120.02 31.9474 119.57 31.4667C119.12 30.9859 118.515 30.7455 117.755 30.7455C116.996 30.7455 116.391 30.9859 115.941 31.4667C115.491 31.9474 115.266 32.622 115.266 33.4905V40.539H111.288V27.5586H115.266V29.28C115.67 28.7062 116.212 28.2564 116.895 27.9308C117.577 27.5896 118.345 27.419 119.198 27.419ZM126.172 34.0255C126.172 32.6918 126.421 31.5209 126.917 30.5129C127.429 29.5049 128.119 28.7294 128.987 28.1867C129.856 27.6439 130.825 27.3725 131.895 27.3725C132.81 27.3725 133.609 27.5586 134.291 27.9308C134.989 28.303 135.524 28.7915 135.896 29.3963V27.5586H139.874V40.539H135.896V38.7013C135.508 39.3061 134.966 39.7946 134.268 40.1668C133.585 40.539 132.787 40.7251 131.872 40.7251C130.817 40.7251 129.856 40.4537 128.987 39.9109C128.119 39.3526 127.429 38.5695 126.917 37.5614C126.421 36.5379 126.172 35.3592 126.172 34.0255ZM135.896 34.0488C135.896 33.0563 135.617 32.2731 135.059 31.6993C134.516 31.1255 133.849 30.8386 133.058 30.8386C132.267 30.8386 131.593 31.1255 131.034 31.6993C130.491 32.2576 130.22 33.033 130.22 34.0255C130.22 35.0181 130.491 35.809 131.034 36.3983C131.593 36.9721 132.267 37.259 133.058 37.259C133.849 37.259 134.516 36.9721 135.059 36.3983C135.617 35.8245 135.896 35.0413 135.896 34.0488Z" fill="#302A69"/>
<line x1="25.2837" y1="70.5532" x2="103.213" y2="70.5532" stroke="#FF7115" stroke-width="3.48936" stroke-linecap="round"/>
<path d="M111.778 67.699C111.927 67.457 112.141 67.2616 112.42 67.1127C112.699 66.9639 113.019 66.8894 113.378 66.8894C113.807 66.8894 114.194 66.998 114.542 67.2151C114.889 67.4322 115.162 67.7424 115.36 68.1456C115.565 68.5488 115.668 69.0172 115.668 69.5506C115.668 70.0841 115.565 70.5556 115.36 70.965C115.162 71.3682 114.889 71.6815 114.542 71.9048C114.194 72.1219 113.807 72.2305 113.378 72.2305C113.013 72.2305 112.693 72.1591 112.42 72.0165C112.147 71.8676 111.933 71.6722 111.778 71.4302V72.156H110.187V65.2704H111.778V67.699ZM114.048 69.5506C114.048 69.1536 113.937 68.8435 113.713 68.6201C113.496 68.3906 113.227 68.2759 112.904 68.2759C112.588 68.2759 112.318 68.3906 112.094 68.6201C111.877 68.8497 111.769 69.1629 111.769 69.56C111.769 69.957 111.877 70.2702 112.094 70.4998C112.318 70.7293 112.588 70.844 112.904 70.844C113.22 70.844 113.49 70.7293 113.713 70.4998C113.937 70.264 114.048 69.9477 114.048 69.5506ZM121.806 66.9639L118.549 74.6219H116.837L118.028 71.9792L115.916 66.9639H117.693L118.894 70.2113L120.085 66.9639H121.806ZM124.037 69.5506C124.037 69.0172 124.136 68.5488 124.335 68.1456C124.539 67.7424 124.815 67.4322 125.163 67.2151C125.51 66.998 125.898 66.8894 126.326 66.8894C126.692 66.8894 127.011 66.9639 127.284 67.1127C127.564 67.2616 127.778 67.457 127.926 67.699V66.9639H129.518V72.156H127.926V71.4209C127.771 71.6629 127.554 71.8583 127.275 72.0072C127.002 72.156 126.683 72.2305 126.317 72.2305C125.895 72.2305 125.51 72.1219 125.163 71.9048C124.815 71.6815 124.539 71.3682 124.335 70.965C124.136 70.5556 124.037 70.0841 124.037 69.5506ZM127.926 69.56C127.926 69.1629 127.815 68.8497 127.591 68.6201C127.374 68.3906 127.108 68.2759 126.791 68.2759C126.475 68.2759 126.205 68.3906 125.982 68.6201C125.765 68.8435 125.656 69.1536 125.656 69.5506C125.656 69.9477 125.765 70.264 125.982 70.4998C126.205 70.7293 126.475 70.844 126.791 70.844C127.108 70.844 127.374 70.7293 127.591 70.4998C127.815 70.2702 127.926 69.957 127.926 69.56ZM132.26 67.8292C132.446 67.5439 132.679 67.3206 132.958 67.1593C133.237 66.9918 133.547 66.908 133.888 66.908V68.5922H133.451C133.054 68.5922 132.756 68.6791 132.558 68.8528C132.359 69.0203 132.26 69.318 132.26 69.7461V72.156H130.669V66.9639H132.26V67.8292ZM134.332 69.5506C134.332 69.0172 134.432 68.5488 134.63 68.1456C134.835 67.7424 135.111 67.4322 135.458 67.2151C135.806 66.998 136.193 66.8894 136.621 66.8894C136.987 66.8894 137.307 66.9639 137.58 67.1127C137.859 67.2616 138.073 67.457 138.222 67.699V66.9639H139.813V72.156H138.222V71.4209C138.067 71.6629 137.85 71.8583 137.571 72.0072C137.298 72.156 136.978 72.2305 136.612 72.2305C136.19 72.2305 135.806 72.1219 135.458 71.9048C135.111 71.6815 134.835 71.3682 134.63 70.965C134.432 70.5556 134.332 70.0841 134.332 69.5506ZM138.222 69.56C138.222 69.1629 138.11 68.8497 137.887 68.6201C137.67 68.3906 137.403 68.2759 137.087 68.2759C136.77 68.2759 136.5 68.3906 136.277 68.6201C136.06 68.8435 135.951 69.1536 135.951 69.5506C135.951 69.9477 136.06 70.264 136.277 70.4998C136.5 70.7293 136.77 70.844 137.087 70.844C137.403 70.844 137.67 70.7293 137.887 70.4998C138.11 70.2702 138.222 69.957 138.222 69.56ZM144.128 66.908C144.736 66.908 145.22 67.1065 145.579 67.5036C145.945 67.8944 146.128 68.4341 146.128 69.1226V72.156H144.547V69.3366C144.547 68.9892 144.457 68.7194 144.277 68.5271C144.097 68.3348 143.855 68.2386 143.551 68.2386C143.247 68.2386 143.005 68.3348 142.825 68.5271C142.645 68.7194 142.555 68.9892 142.555 69.3366V72.156H140.964V66.9639H142.555V67.6524C142.717 67.4229 142.934 67.243 143.207 67.1127C143.48 66.9763 143.787 66.908 144.128 66.908ZM146.918 69.5506C146.918 69.0172 147.017 68.5488 147.215 68.1456C147.42 67.7424 147.696 67.4322 148.044 67.2151C148.391 66.998 148.779 66.8894 149.207 66.8894C149.573 66.8894 149.892 66.9639 150.165 67.1127C150.444 67.2616 150.658 67.457 150.807 67.699V66.9639H152.398V72.156H150.807V71.4209C150.652 71.6629 150.435 71.8583 150.156 72.0072C149.883 72.156 149.563 72.2305 149.197 72.2305C148.776 72.2305 148.391 72.1219 148.044 71.9048C147.696 71.6815 147.42 71.3682 147.215 70.965C147.017 70.5556 146.918 70.0841 146.918 69.5506ZM150.807 69.56C150.807 69.1629 150.696 68.8497 150.472 68.6201C150.255 68.3906 149.988 68.2759 149.672 68.2759C149.356 68.2759 149.086 68.3906 148.862 68.6201C148.645 68.8435 148.537 69.1536 148.537 69.5506C148.537 69.9477 148.645 70.264 148.862 70.4998C149.086 70.7293 149.356 70.844 149.672 70.844C149.988 70.844 150.255 70.7293 150.472 70.4998C150.696 70.2702 150.807 69.957 150.807 69.56ZM156.322 66.4242C156.042 66.4242 155.813 66.3435 155.633 66.1822C155.459 66.0148 155.372 65.8101 155.372 65.5681C155.372 65.32 155.459 65.1153 155.633 64.954C155.813 64.7865 156.042 64.7028 156.322 64.7028C156.595 64.7028 156.818 64.7865 156.992 64.954C157.171 65.1153 157.261 65.32 157.261 65.5681C157.261 65.8101 157.171 66.0148 156.992 66.1822C156.818 66.3435 156.595 66.4242 156.322 66.4242ZM157.112 66.9639V72.156H155.521V66.9639H157.112ZM161.429 66.908C162.037 66.908 162.521 67.1065 162.881 67.5036C163.247 67.8944 163.43 68.4341 163.43 69.1226V72.156H161.848V69.3366C161.848 68.9892 161.758 68.7194 161.578 68.5271C161.398 68.3348 161.156 68.2386 160.852 68.2386C160.548 68.2386 160.306 68.3348 160.127 68.5271C159.947 68.7194 159.857 68.9892 159.857 69.3366V72.156H158.266V66.9639H159.857V67.6524C160.018 67.4229 160.235 67.243 160.508 67.1127C160.781 66.9763 161.088 66.908 161.429 66.908ZM164.219 69.56C164.219 69.0203 164.328 68.5488 164.545 68.1456C164.768 67.7424 165.075 67.4322 165.466 67.2151C165.863 66.998 166.316 66.8894 166.825 66.8894C167.476 66.8894 168.019 67.06 168.453 67.4012C168.893 67.7424 169.182 68.2231 169.318 68.8435H167.625C167.482 68.4465 167.206 68.248 166.797 68.248C166.505 68.248 166.272 68.3627 166.099 68.5922C165.925 68.8156 165.838 69.1381 165.838 69.56C165.838 69.9818 165.925 70.3074 166.099 70.537C166.272 70.7603 166.505 70.872 166.797 70.872C167.206 70.872 167.482 70.6734 167.625 70.2764H169.318C169.182 70.8844 168.893 71.362 168.453 71.7094C168.012 72.0568 167.47 72.2305 166.825 72.2305C166.316 72.2305 165.863 72.1219 165.466 71.9048C165.075 71.6877 164.768 71.3775 164.545 70.9743C164.328 70.5711 164.219 70.0996 164.219 69.56ZM170.914 72.2305C170.635 72.2305 170.405 72.1498 170.225 71.9885C170.052 71.8211 169.965 71.6163 169.965 71.3744C169.965 71.1263 170.052 70.9185 170.225 70.751C170.405 70.5835 170.635 70.4998 170.914 70.4998C171.187 70.4998 171.41 70.5835 171.584 70.751C171.764 70.9185 171.854 71.1263 171.854 71.3744C171.854 71.6163 171.764 71.8211 171.584 71.9885C171.41 72.1498 171.187 72.2305 170.914 72.2305Z" fill="#2ECC71"/>
<path d="M37.8029 60.9309V54.3319C37.8029 52.6535 39.1654 51.2897 40.8535 51.2784H47.0372C48.7334 51.2784 50.1085 52.6455 50.1085 54.3319V54.3319V60.9514C50.1081 62.3764 51.2521 63.5411 52.685 63.5745H56.8074C60.917 63.5745 64.2485 60.2623 64.2485 56.1764V56.1764V37.4043C64.2265 35.7969 63.4674 34.2875 62.1872 33.3056L48.0885 22.0137C45.6185 20.0475 42.1074 20.0475 39.6374 22.0137L25.6005 33.3261C24.3154 34.304 23.5551 35.8159 23.5392 37.4248V56.1764C23.5392 60.2623 26.8707 63.5745 30.9803 63.5745H35.1027C36.5712 63.5745 37.7617 62.3909 37.7617 60.9309V60.9309" stroke="#302A69" stroke-width="2.32624" stroke-linecap="round" stroke-linejoin="round"/>
<circle cx="43.8954" cy="38.5692" r="5.8174" fill="white" stroke="#FF7115" stroke-width="2.32624"/>
</g>
<defs>
<filter id="filter0_d_54_115" x="0.30742" y="0.204947" width="196.506" height="99.3852" filterUnits="userSpaceOnUse" color-interpolation-filters="sRGB">
<feFlood flood-opacity="0" result="BackgroundImageFix"/>
<feColorMatrix in="SourceAlpha" type="matrix" values="0 0 0 0 0 0 0 0 0 0 0 0 0 0 0 0 0 0 127 0" result="hardAlpha"/>
<feOffset dy="2.89753"/>
<feGaussianBlur stdDeviation="4.34629"/>
<feComposite in2="hardAlpha" operator="out"/>
<feColorMatrix type="matrix" values="0 0 0 0 0 0 0 0 0 0 0 0 0 0 0 0 0 0 0.15 0"/>
<feBlend mode="normal" in2="BackgroundImageFix" result="effect1_dropShadow_54_115"/>
<feBlend mode="normal" in="SourceGraphic" in2="effect1_dropShadow_54_115" result="shape"/>
</filter>
</defs>
</svg>
